<svg width="16" height="16" viewBox="0 0 16 16" fill="none" xmlns="http://www.w3.org/2000/svg">
<g id="outline/camera">
<path id="Vector" d="M4.25064 3.72265C4.09746 3.95241 4.15955 4.26285 4.38931 4.41603C4.61908 4.5692 4.92951 4.50711 5.08269 4.27735L4.25064 3.72265ZM5.60417 2.59373L6.0202 2.87108V2.87108L5.60417 2.59373ZM10.3958 2.59373L10.8118 2.31638L10.3958 2.59373ZM10.9173 4.27735C11.0705 4.50711 11.3809 4.5692 11.6107 4.41603C11.8404 4.26285 11.9025 3.95241 11.7494 3.72265L10.9173 4.27735ZM9.5 9C9.5 9.82843 8.82842 10.5 8 10.5V11.5C9.38071 11.5 10.5 10.3807 10.5 9H9.5ZM8 10.5C7.17157 10.5 6.5 9.82843 6.5 9H5.5C5.5 10.3807 6.61928 11.5 8 11.5V10.5ZM6.5 9C6.5 8.17157 7.17157 7.5 8 7.5V6.5C6.61928 6.5 5.5 7.61929 5.5 9H6.5ZM8 7.5C8.82842 7.5 9.5 8.17157 9.5 9H10.5C10.5 7.61929 9.38071 6.5 8 6.5V7.5ZM5.08269 4.27735L6.0202 2.87108L5.18815 2.31638L4.25064 3.72265L5.08269 4.27735ZM6.71357 2.5H9.28642V1.5H6.71357V2.5ZM9.97979 2.87108L10.9173 4.27735L11.7494 3.72265L10.8118 2.31638L9.97979 2.87108ZM9.28642 2.5C9.56504 2.5 9.82524 2.63925 9.97979 2.87108L10.8118 2.31638C10.4718 1.80635 9.8994 1.5 9.28642 1.5V2.5ZM6.0202 2.87108C6.17475 2.63925 6.43495 2.5 6.71357 2.5V1.5C6.10059 1.5 5.52817 1.80635 5.18815 2.31638L6.0202 2.87108ZM3.99999 4.5H12V3.5H3.99999V4.5ZM14.1667 6.66667V11.3333H15.1667V6.66667H14.1667ZM12 13.5H3.99999V14.5H12V13.5ZM1.83333 11.3333V6.66667H0.833328V11.3333H1.83333ZM3.99999 13.5C2.80338 13.5 1.83333 12.53 1.83333 11.3333H0.833328C0.833328 13.0822 2.25109 14.5 3.99999 14.5V13.5ZM14.1667 11.3333C14.1667 12.53 13.1966 13.5 12 13.5V14.5C13.7489 14.5 15.1667 13.0822 15.1667 11.3333H14.1667ZM12 4.5C13.1966 4.5 14.1667 5.47005 14.1667 6.66667H15.1667C15.1667 4.91777 13.7489 3.5 12 3.5V4.5ZM3.99999 3.5C2.25109 3.5 0.833328 4.91777 0.833328 6.66667H1.83333C1.83333 5.47005 2.80338 4.5 3.99999 4.5V3.5Z" fill="#FEFEFE"/>
</g>
</svg>
