<svg width="20" height="20" viewBox="0 0 20 20" fill="none" xmlns="http://www.w3.org/2000/svg">
<path d="M18.3337 9.58317V12.1665C18.3337 14.0333 18.3337 14.9668 17.9703 15.6798C17.6508 16.307 17.1408 16.8169 16.5136 17.1365C15.8006 17.4998 14.8672 17.4998 13.0003 17.4998H7.00033C5.13348 17.4998 4.20006 17.4998 3.48702 17.1365C2.85982 16.8169 2.34988 16.307 2.0303 15.6798C1.66699 14.9668 1.66699 14.0333 1.66699 12.1665V7.83317C1.66699 5.96633 1.66699 5.03291 2.0303 4.31987C2.34988 3.69266 2.85982 3.18273 3.48702 2.86315C4.20006 2.49984 5.13348 2.49984 7.00033 2.49984H10.417M15.8337 6.6665V1.6665M13.3337 4.1665H18.3337M13.3337 9.99984C13.3337 11.8408 11.8413 13.3332 10.0003 13.3332C8.15938 13.3332 6.66699 11.8408 6.66699 9.99984C6.66699 8.15889 8.15938 6.6665 10.0003 6.6665C11.8413 6.6665 13.3337 8.15889 13.3337 9.99984Z" stroke="#595959" stroke-width="1.5" strokeLinecap="round" strokeLinejoin="round"/>
</svg>
