<svg width="25" height="24" viewBox="0 0 25 24" fill="none" xmlns="http://www.w3.org/2000/svg">
<g id="Outline / Shopping, Ecommerce / Cart Large Minimalistic">
<g id="Vector">
<path fill-rule="evenodd" clip-rule="evenodd" d="M2.74878 2.29266C2.35801 2.15527 1.92986 2.36068 1.79248 2.75145C1.65509 3.14221 1.8605 3.57036 2.25126 3.70775L2.51247 3.79958C3.18008 4.0343 3.61883 4.18985 3.94168 4.34826C4.2449 4.49704 4.37857 4.61747 4.46663 4.74634C4.55689 4.87842 4.6266 5.05984 4.66593 5.42319C4.70708 5.8034 4.7081 6.29862 4.7081 7.03856V9.7602C4.7081 11.2127 4.72173 12.2601 4.85878 13.0603C5.00511 13.9146 5.29724 14.5263 5.84347 15.1024C6.43733 15.7288 7.19014 16.0015 8.08638 16.1285C8.94461 16.2502 10.0345 16.2502 11.3802 16.2502L16.7859 16.2502C17.5276 16.2502 18.1516 16.2502 18.6566 16.1884C19.1923 16.1229 19.6809 15.9796 20.1074 15.632C20.5339 15.2844 20.7729 14.8349 20.9453 14.3234C21.1078 13.8413 21.2337 13.2301 21.3834 12.5037L21.8923 10.0344L21.8933 10.0298L21.9037 9.97747C22.0684 9.15259 22.2069 8.4587 22.2414 7.90058C22.2776 7.31438 22.2108 6.73637 21.829 6.23998C21.594 5.93456 21.2637 5.76166 20.9632 5.65607C20.6567 5.54838 20.3101 5.48608 19.9604 5.44698C19.2733 5.37018 18.4387 5.37019 17.6201 5.3702L6.1679 5.3702C6.16462 5.33345 6.16106 5.29731 6.15722 5.26177C6.10349 4.76539 5.98707 4.31268 5.70509 3.90003C5.42091 3.48417 5.04306 3.21784 4.60243 3.00163C4.19034 2.79943 3.66671 2.61536 3.05018 2.39862L2.74878 2.29266ZM6.20809 6.8702H17.5889C18.4452 6.8702 19.1989 6.87121 19.7937 6.9377C20.0893 6.97074 20.3105 7.01664 20.4659 7.07125C20.593 7.11589 20.6359 7.15234 20.6422 7.15762C20.642 7.15751 20.6424 7.15783 20.6422 7.15762C20.7035 7.23902 20.7702 7.38672 20.7442 7.80818C20.7169 8.25174 20.6004 8.844 20.4227 9.73393L20.4223 9.73615L19.9235 12.1563C19.7621 12.9391 19.6535 13.4595 19.5238 13.8444C19.4007 14.2097 19.2851 14.3672 19.1598 14.4692C19.0346 14.5712 18.8571 14.6527 18.4744 14.6996C18.0712 14.7489 17.5397 14.7502 16.7404 14.7502H11.4375C10.0207 14.7502 9.03765 14.7484 8.29698 14.6434C7.58217 14.542 7.20455 14.3578 6.932 14.0704C6.61184 13.7327 6.43915 13.402 6.33725 12.8071C6.22609 12.1581 6.2081 11.2492 6.2081 9.7602L6.20809 6.8702Z" fill="#383838"/>
<path fill-rule="evenodd" clip-rule="evenodd" d="M8.00002 21.7502C6.75738 21.7502 5.75002 20.7428 5.75002 19.5002C5.75002 18.2576 6.75738 17.2502 8.00002 17.2502C9.24266 17.2502 10.25 18.2576 10.25 19.5002C10.25 20.7428 9.24266 21.7502 8.00002 21.7502ZM7.25002 19.5002C7.25002 19.9144 7.58581 20.2502 8.00002 20.2502C8.41424 20.2502 8.75002 19.9144 8.75002 19.5002C8.75002 19.086 8.41424 18.7502 8.00002 18.7502C7.58581 18.7502 7.25002 19.086 7.25002 19.5002Z" fill="#383838"/>
<path fill-rule="evenodd" clip-rule="evenodd" d="M17 21.7503C15.7574 21.7503 14.75 20.7429 14.75 19.5003C14.75 18.2576 15.7574 17.2503 17 17.2503C18.2427 17.2503 19.25 18.2576 19.25 19.5003C19.25 20.7429 18.2427 21.7503 17 21.7503ZM16.25 19.5003C16.25 19.9145 16.5858 20.2503 17 20.2503C17.4142 20.2503 17.75 19.9145 17.75 19.5003C17.75 19.0861 17.4142 18.7503 17 18.7503C16.5858 18.7503 16.25 19.0861 16.25 19.5003Z" fill="#383838"/>
</g>
</g>
</svg>
