<svg width="21" height="20" viewBox="0 0 21 20" fill="none" xmlns="http://www.w3.org/2000/svg">
<g id="Outline / Essentional, UI / Copy">
<path id="Vector" fill-rule="evenodd" clip-rule="evenodd" d="M13 1.04199H9.61965C8.08819 1.04198 6.87516 1.04197 5.92582 1.16961C4.9488 1.30096 4.15801 1.57773 3.53437 2.20136C2.91073 2.825 2.63397 3.61579 2.50261 4.59281C2.37498 5.54215 2.37499 6.75518 2.375 8.28664V13.3337C2.375 14.8939 3.51838 16.187 5.01293 16.4209C5.1279 17.0576 5.34794 17.601 5.79029 18.0434C6.29189 18.545 6.92345 18.7607 7.67354 18.8616C8.39602 18.9587 9.31462 18.9587 10.4543 18.9587H13.0457C14.1854 18.9587 15.104 18.9587 15.8265 18.8616C16.5766 18.7607 17.2081 18.545 17.7097 18.0434C18.2113 17.5418 18.4271 16.9102 18.5279 16.1601C18.625 15.4376 18.625 14.519 18.625 13.3794V9.12127C18.625 7.98161 18.625 7.06301 18.5279 6.34053C18.4271 5.59044 18.2113 4.95888 17.7097 4.45728C17.2674 4.01493 16.7239 3.7949 16.0873 3.67992C15.8534 2.18537 14.5602 1.04199 13 1.04199ZM14.7744 3.55963C14.5221 2.82219 13.823 2.29199 13 2.29199H9.66667C8.07765 2.29199 6.94876 2.29332 6.09238 2.40846C5.25397 2.52118 4.77093 2.73257 4.41825 3.08525C4.06558 3.43792 3.85419 3.92096 3.74147 4.75937C3.62633 5.61575 3.625 6.74464 3.625 8.33366V13.3337C3.625 14.1566 4.1552 14.8558 4.89264 15.1081C4.87498 14.5998 4.87499 14.0251 4.875 13.3794V9.12126C4.87498 7.98161 4.87497 7.06301 4.9721 6.34053C5.07295 5.59044 5.2887 4.95888 5.79029 4.45728C6.29189 3.95569 6.92345 3.73994 7.67354 3.6391C8.39601 3.54196 9.31461 3.54198 10.4543 3.54199H13.0457C13.6914 3.54198 14.2661 3.54197 14.7744 3.55963ZM6.67418 5.34117C6.90481 5.11053 7.22862 4.96016 7.8401 4.87795C8.46956 4.79332 9.30382 4.79199 10.5 4.79199H13C14.1962 4.79199 15.0304 4.79332 15.6599 4.87795C16.2714 4.96016 16.5952 5.11053 16.8258 5.34117C17.0565 5.5718 17.2068 5.89561 17.289 6.50709C17.3737 7.13655 17.375 7.97081 17.375 9.16699V13.3337C17.375 14.5298 17.3737 15.3641 17.289 15.9936C17.2068 16.605 17.0565 16.9288 16.8258 17.1595C16.5952 17.3901 16.2714 17.5405 15.6599 17.6227C15.0304 17.7073 14.1962 17.7087 13 17.7087H10.5C9.30382 17.7087 8.46956 17.7073 7.8401 17.6227C7.22862 17.5405 6.90481 17.3901 6.67418 17.1595C6.44354 16.9288 6.29317 16.605 6.21096 15.9936C6.12633 15.3641 6.125 14.5298 6.125 13.3337V9.16699C6.125 7.97081 6.12633 7.13655 6.21096 6.50709C6.29317 5.89561 6.44354 5.5718 6.67418 5.34117Z" fill="#383838"/>
</g>
</svg>
