<svg width="23" height="16" viewBox="0 0 23 16" fill="none" xmlns="http://www.w3.org/2000/svg">
<path d="M4.5 14.972C3.403 14.918 2.72 14.755 2.232 14.268C1.744 13.781 1.582 13.097 1.528 12M8.5 15H14.5M18.5 14.972C19.597 14.918 20.28 14.755 20.768 14.268C21.5 13.535 21.5 12.357 21.5 10V8H16.8C16.055 8 15.683 8 15.382 7.902C15.0818 7.80447 14.809 7.63728 14.5859 7.41412C14.3627 7.19096 14.1955 6.91815 14.098 6.618C14 6.317 14 5.945 14 5.2C14 4.083 14 3.525 13.853 3.073C13.7067 2.62277 13.4559 2.21356 13.1212 1.87882C12.7864 1.54408 12.3772 1.2933 11.927 1.147C11.475 1 10.917 1 9.8 1H1.5M1.5 5H7.5M1.5 8H5.5" stroke="black" stroke-width="1.5" stroke-linecap="round" stroke-linejoin="round"/>
</svg>
