<svg width="5" height="5" viewBox="0 0 5 5" fill="none" xmlns="http://www.w3.org/2000/svg">
<path d="M4.01409 0H2.5914L3.49667 1.2529L4.01409 0ZM0.996667 0L1.51409 1.2529L2.41935 0H0.996667ZM2.50538 0.476228L1.8172 1.42857H3.19355L2.50538 0.476228ZM4.30054 0.212723L3.79849 1.42857H5L4.30054 0.212723ZM0.710215 0.212723L0 1.42857H1.21226L0.710215 0.212723ZM1.32989 1.78571H0.0107527L2.40645 5H2.41215L1.32989 1.78571ZM3.68086 1.78571L2.5986 5H2.6043L5 1.78571H3.68086ZM3.29452 1.78571H1.71624L2.50538 4.10714L3.29452 1.78571Z" fill="white"/>
</svg>
