<svg width="360" height="20" viewBox="0 0 360 20" fill="none" xmlns="http://www.w3.org/2000/svg">
<rect y="9.5" width="170" height="1" fill="#D0D5DD"/>
<path d="M179.996 15.0945C179.724 15.0945 179.491 14.9983 179.295 14.8061C179.1 14.6106 179.002 14.3752 179.002 14.1001C179.002 13.8284 179.1 13.5964 179.295 13.4041C179.491 13.2086 179.724 13.1108 179.996 13.1108C180.268 13.1108 180.502 13.2086 180.697 13.4041C180.893 13.5964 180.991 13.8284 180.991 14.1001C180.991 14.2824 180.944 14.4498 180.851 14.6023C180.762 14.7514 180.643 14.8707 180.493 14.9602C180.344 15.0497 180.179 15.0945 179.996 15.0945Z" fill="#D0D5DD"/>
<rect x="190" y="9.5" width="170" height="1" fill="#D0D5DD"/>
</svg>
