<svg width="33" height="34" viewBox="0 0 33 34" fill="none" xmlns="http://www.w3.org/2000/svg">
<rect x="0.666656" y="1" width="32" height="32" rx="4" stroke="white" stroke-width="0.6"/>
<rect x="9.66666" y="10" width="14" height="14" rx="6" fill="white"/>
<rect x="9.66666" y="10" width="14" height="14" rx="6" fill="white"/>
<rect x="9.66666" y="10" width="14" height="14" rx="6" fill="white"/>
<path d="M20.1667 14.25C20.1667 14.6642 19.8309 15 19.4167 15C19.0024 15 18.6667 14.6642 18.6667 14.25C18.6667 13.8358 19.0024 13.5 19.4167 13.5C19.8309 13.5 20.1667 13.8358 20.1667 14.25Z" fill="#3D4C5E"/>
<path fill-rule="evenodd" clip-rule="evenodd" d="M16.6667 19.5C18.0474 19.5 19.1667 18.3807 19.1667 17C19.1667 15.6193 18.0474 14.5 16.6667 14.5C15.2859 14.5 14.1667 15.6193 14.1667 17C14.1667 18.3807 15.2859 19.5 16.6667 19.5ZM16.6667 18.5C17.4951 18.5 18.1667 17.8284 18.1667 17C18.1667 16.1716 17.4951 15.5 16.6667 15.5C15.8382 15.5 15.1667 16.1716 15.1667 17C15.1667 17.8284 15.8382 18.5 16.6667 18.5Z" fill="#3D4C5E"/>
<path fill-rule="evenodd" clip-rule="evenodd" d="M11.6667 16.8C11.6667 15.1198 11.6667 14.2798 11.9936 13.638C12.2813 13.0735 12.7402 12.6146 13.3047 12.327C13.9464 12 14.7865 12 16.4667 12H16.8667C18.5468 12 19.3869 12 20.0286 12.327C20.5931 12.6146 21.0521 13.0735 21.3397 13.638C21.6667 14.2798 21.6667 15.1198 21.6667 16.8V17.2C21.6667 18.8802 21.6667 19.7202 21.3397 20.362C21.0521 20.9265 20.5931 21.3854 20.0286 21.673C19.3869 22 18.5468 22 16.8667 22H16.4667C14.7865 22 13.9464 22 13.3047 21.673C12.7402 21.3854 12.2813 20.9265 11.9936 20.362C11.6667 19.7202 11.6667 18.8802 11.6667 17.2V16.8ZM16.4667 13H16.8667C17.7232 13 18.3055 13.0008 18.7556 13.0376C19.194 13.0734 19.4182 13.1383 19.5746 13.218C19.951 13.4097 20.2569 13.7157 20.4487 14.092C20.5284 14.2484 20.5933 14.4726 20.6291 14.911C20.6659 15.3611 20.6667 15.9434 20.6667 16.8V17.2C20.6667 18.0566 20.6659 18.6389 20.6291 19.089C20.5933 19.5274 20.5284 19.7516 20.4487 19.908C20.2569 20.2843 19.951 20.5903 19.5746 20.782C19.4182 20.8617 19.194 20.9266 18.7556 20.9624C18.3055 20.9992 17.7232 21 16.8667 21H16.4667C15.6101 21 15.0278 20.9992 14.5777 20.9624C14.1393 20.9266 13.9151 20.8617 13.7587 20.782C13.3824 20.5903 13.0764 20.2843 12.8846 19.908C12.805 19.7516 12.74 19.5274 12.7042 19.089C12.6674 18.6389 12.6667 18.0566 12.6667 17.2V16.8C12.6667 15.9434 12.6674 15.3611 12.7042 14.911C12.74 14.4726 12.805 14.2484 12.8846 14.092C13.0764 13.7157 13.3824 13.4097 13.7587 13.218C13.9151 13.1383 14.1393 13.0734 14.5777 13.0376C15.0278 13.0008 15.6101 13 16.4667 13Z" fill="#3D4C5E"/>
</svg>
