<svg width="25" height="24" viewBox="0 0 25 24" fill="none" xmlns="http://www.w3.org/2000/svg">
<path fill-rule="evenodd" clip-rule="evenodd" d="M10.6102 3.25H14.7231C16.5608 3.24998 18.0165 3.24997 19.1557 3.40314C20.3281 3.56076 21.2771 3.89288 22.0254 4.64124C22.7738 5.38961 23.1059 6.33856 23.2635 7.51098C23.4167 8.65019 23.4167 10.1058 23.4167 11.9436V12.0564C23.4167 13.8942 23.4167 15.3498 23.2635 16.489C23.1059 17.6614 22.7738 18.6104 22.0254 19.3588C21.2771 20.1071 20.3281 20.4392 19.1557 20.5969C18.0165 20.75 16.5608 20.75 14.7231 20.75H10.6102C8.77248 20.75 7.31685 20.75 6.17763 20.5969C5.00521 20.4392 4.05626 20.1071 3.3079 19.3588C2.55954 18.6104 2.22742 17.6614 2.06979 16.489C1.91663 15.3498 1.91664 13.8942 1.91666 12.0564V11.9436C1.91664 10.1058 1.91663 8.65019 2.06979 7.51098C2.22742 6.33856 2.55954 5.38961 3.3079 4.64124C4.05626 3.89288 5.00521 3.56076 6.17763 3.40314C7.31685 3.24997 8.77248 3.24998 10.6102 3.25ZM6.37751 4.88976C5.37142 5.02502 4.79177 5.27869 4.36856 5.7019C3.94535 6.12511 3.69168 6.70476 3.55642 7.71085C3.41825 8.73851 3.41666 10.0932 3.41666 12C3.41666 13.9068 3.41825 15.2615 3.55642 16.2892C3.69168 17.2952 3.94535 17.8749 4.36856 18.2981C4.79177 18.7213 5.37142 18.975 6.37751 19.1102C7.40517 19.2484 8.75984 19.25 10.6667 19.25H14.6667C16.5735 19.25 17.9281 19.2484 18.9558 19.1102C19.9619 18.975 20.5415 18.7213 20.9648 18.2981C21.388 17.8749 21.6416 17.2952 21.7769 16.2892C21.9151 15.2615 21.9167 13.9068 21.9167 12C21.9167 10.0932 21.9151 8.73851 21.7769 7.71085C21.6416 6.70476 21.388 6.12511 20.9648 5.7019C20.5415 5.27869 19.9619 5.02502 18.9558 4.88976C17.9281 4.75159 16.5735 4.75 14.6667 4.75H10.6667C8.75984 4.75 7.40517 4.75159 6.37751 4.88976ZM6.09049 7.51986C6.35566 7.20165 6.82859 7.15866 7.1468 7.42383L9.30569 9.22291C10.2387 10.0004 10.8864 10.5384 11.4332 10.8901C11.9626 11.2306 12.3216 11.3449 12.6667 11.3449C13.0117 11.3449 13.3707 11.2306 13.9001 10.8901C14.4469 10.5384 15.0947 10.0004 16.0276 9.22291L18.1865 7.42383C18.5047 7.15866 18.9776 7.20165 19.2428 7.51986C19.508 7.83807 19.465 8.31099 19.1468 8.57617L16.9503 10.4066C16.0639 11.1452 15.3455 11.7439 14.7115 12.1517C14.051 12.5765 13.4077 12.8449 12.6667 12.8449C11.9256 12.8449 11.2823 12.5765 10.6218 12.1517C9.98777 11.7439 9.26937 11.1452 8.38302 10.4066L6.18652 8.57617C5.86831 8.31099 5.82532 7.83807 6.09049 7.51986Z" fill="#BFBFBF"/>
</svg>
