<svg width="25" height="24" viewBox="0 0 25 24" fill="none" xmlns="http://www.w3.org/2000/svg">
<path fill-rule="evenodd" clip-rule="evenodd" d="M6.67414 3.40735C8.35421 1.72728 11.1893 1.855 12.3592 3.95112L13.0082 5.11405C13.7721 6.48287 13.4466 8.20995 12.3283 9.34192C12.3134 9.36232 12.2344 9.47726 12.2246 9.67807C12.212 9.93439 12.3031 10.5272 13.2215 11.4456C14.1396 12.3637 14.7323 12.455 14.9888 12.4425C15.1897 12.4327 15.3048 12.3538 15.3252 12.3388C16.4572 11.2205 18.1842 10.895 19.5531 11.6589L20.716 12.3079C22.8121 13.4778 22.9398 16.3129 21.2598 17.993C20.3611 18.8916 19.1662 19.6901 17.762 19.7434C15.6811 19.8222 12.2258 19.2849 8.80403 15.8631C5.38225 12.4413 4.84486 8.98605 4.92375 6.90512C4.97698 5.50092 5.77548 4.30601 6.67414 3.40735ZM11.0493 4.68211C10.4503 3.60877 8.84063 3.36218 7.7348 4.46801C6.95945 5.24335 6.45538 6.09917 6.42267 6.96195C6.35689 8.69729 6.78533 11.723 9.8647 14.8024C12.9441 17.8818 15.9698 18.3102 17.7052 18.2444C18.5679 18.2117 19.4238 17.7077 20.1991 16.9323C21.3049 15.8265 21.0583 14.2168 19.985 13.6178L18.8221 12.9688C18.0987 12.565 17.0825 12.7027 16.3692 13.416L16.369 13.4163C16.2989 13.4863 15.8531 13.9022 15.0616 13.9407C14.2514 13.9802 13.2707 13.6161 12.1608 12.5063C11.0506 11.3961 10.6867 10.415 10.7264 9.60472C10.7651 8.8132 11.1814 8.3676 11.251 8.29795L11.251 8.29792C11.9644 7.5846 12.1021 6.56846 11.6984 5.84504L11.0493 4.68211Z" fill="#BFBFBF"/>
</svg>
