<svg width="17" height="16" viewBox="0 0 17 16" fill="none" xmlns="http://www.w3.org/2000/svg">
<path d="M6.28133 13.7448C7.452 14.3595 8.03733 14.6662 8.66667 14.6662V7.99951L2.42533 4.71484L2.39867 4.75951C2 5.43551 2 6.27751 2 7.96084V8.03884C2 9.72151 2 10.5635 2.398 11.2395C2.79667 11.9162 3.514 12.2928 4.948 13.0455L6.28133 13.7448Z" fill="#BFBFBF"/>
<path opacity="0.7" d="M12.3846 2.95532L11.0513 2.25532C9.88129 1.64132 9.29596 1.33398 8.66663 1.33398C8.03663 1.33398 7.45196 1.64065 6.28129 2.25532L4.94796 2.95532C3.54529 3.69132 2.82796 4.06732 2.42529 4.71532L8.66663 8.00065L14.908 4.71598C14.504 4.06732 13.788 3.69132 12.3846 2.95532Z" fill="#BFBFBF"/>
<path opacity="0.5" d="M14.9354 4.75951L14.9081 4.71484L8.66675 7.99951V14.6662C9.29608 14.6662 9.88141 14.3595 11.0521 13.7448L12.3854 13.0448C13.8194 12.2922 14.5367 11.9162 14.9354 11.2395C15.3334 10.5635 15.3334 9.72151 15.3334 8.03951V7.96151C15.3334 6.27818 15.3334 5.43551 14.9354 4.75951Z" fill="#BFBFBF"/>
<path d="M4.88197 2.98897L4.94863 2.95431L5.94397 2.43164L12.0106 5.76831L14.694 4.42764C14.7851 4.53075 14.8655 4.64142 14.9353 4.75964C15.0353 4.92897 15.11 5.10897 15.166 5.30964L12.5 6.64231V8.66631C12.5 8.79892 12.4473 8.92609 12.3535 9.01986C12.2598 9.11363 12.1326 9.16631 12 9.16631C11.8674 9.16631 11.7402 9.11363 11.6464 9.01986C11.5526 8.92609 11.5 8.79892 11.5 8.66631V7.14231L9.16664 8.30897V14.6023C9.00333 14.6446 8.83533 14.6661 8.66664 14.6663C8.5013 14.6663 8.33797 14.645 8.16664 14.6023V8.30897L2.16797 5.30897C2.22397 5.10897 2.29864 4.92897 2.39864 4.75964C2.46797 4.64142 2.54841 4.53075 2.63997 4.42764L8.66664 7.44097L10.9246 6.31231L4.88197 2.98897Z" fill="#BFBFBF"/>
</svg>
