<svg width="12" height="12" viewBox="0 0 12 12" fill="none" xmlns="http://www.w3.org/2000/svg">
<path d="M6 9.51663L3.23333 11.1833C3.11111 11.2611 2.98333 11.2944 2.85 11.2833C2.71666 11.2722 2.6 11.2277 2.5 11.15C2.4 11.0722 2.32222 10.9751 2.26666 10.8586C2.21111 10.7422 2.2 10.6115 2.23333 10.4666L2.96666 7.31663L0.516665 5.19997C0.405554 5.09997 0.33622 4.98597 0.308665 4.85797C0.281109 4.72997 0.289331 4.60508 0.333331 4.4833C0.377331 4.36152 0.443998 4.26152 0.533331 4.1833C0.622665 4.10508 0.744887 4.05508 0.899998 4.0333L4.13333 3.74997L5.38333 0.783301C5.43889 0.649968 5.52511 0.549967 5.642 0.483301C5.75889 0.416634 5.87822 0.383301 6 0.383301C6.12178 0.383301 6.24111 0.416634 6.358 0.483301C6.47489 0.549967 6.56111 0.649968 6.61666 0.783301L7.86666 3.74997L11.1 4.0333C11.2556 4.05552 11.3778 4.10552 11.4667 4.1833C11.5556 4.26108 11.6222 4.36108 11.6667 4.4833C11.7111 4.60552 11.7196 4.73063 11.692 4.85863C11.6644 4.98663 11.5949 5.10041 11.4833 5.19997L9.03333 7.31663L9.76666 10.4666C9.8 10.6111 9.78889 10.7417 9.73333 10.8586C9.67778 10.9755 9.6 11.0726 9.5 11.15C9.4 11.2273 9.28333 11.2717 9.15 11.2833C9.01667 11.2949 8.88889 11.2615 8.76666 11.1833L6 9.51663Z" fill="#F4B800"/>
</svg>
