<svg width="21" height="22" viewBox="0 0 21 22" fill="none" xmlns="http://www.w3.org/2000/svg">
<path fill-rule="evenodd" clip-rule="evenodd" d="M5.59872 0.250041C5.64677 0.250062 5.69553 0.250083 5.74502 0.250083H15.255C15.3045 0.250083 15.3532 0.250062 15.4013 0.250041C16.418 0.249595 17.1178 0.249289 17.7071 0.454346C18.8201 0.841609 19.6842 1.73726 20.0546 2.86559L19.3421 3.09954L20.0546 2.86559C20.2507 3.46271 20.2504 4.17254 20.25 5.22655C20.25 5.27372 20.25 5.32158 20.25 5.37014V19.3743C20.25 20.8395 18.523 21.7118 17.3856 20.671C17.3061 20.5983 17.1939 20.5983 17.1144 20.671L16.6313 21.1131C15.7031 21.9624 14.2969 21.9624 13.3687 21.1131C13.0137 20.7882 12.4863 20.7882 12.1313 21.1131C11.2031 21.9624 9.79688 21.9624 8.86869 21.1131C8.51371 20.7882 7.98631 20.7882 7.63132 21.1131C6.70313 21.9624 5.29688 21.9624 4.36869 21.1131L3.8856 20.671C3.80612 20.5983 3.69389 20.5983 3.61442 20.671C2.47699 21.7118 0.750006 20.8395 0.750006 19.3743V5.37014C0.750006 5.32158 0.749989 5.27372 0.749972 5.22655C0.74959 4.17255 0.749333 3.46271 0.945385 2.86559C1.31585 1.73726 2.17996 0.841609 3.29292 0.454346C3.88224 0.249289 4.58197 0.249595 5.59872 0.250041ZM5.74502 1.75008C4.52394 1.75008 4.10334 1.76057 3.78587 1.87103C3.12649 2.10047 2.59913 2.63728 2.37054 3.3335C2.25945 3.67183 2.25001 4.11796 2.25001 5.37014V19.3743C2.25001 19.4933 2.30993 19.5661 2.38511 19.6009C2.42427 19.619 2.46258 19.6237 2.49449 19.6194C2.52263 19.6156 2.55904 19.6035 2.60179 19.5644C3.25447 18.9671 4.24555 18.9671 4.89822 19.5644L5.38132 20.0065C5.73631 20.3313 6.26371 20.3313 6.61869 20.0065C7.54688 19.1571 8.95313 19.1571 9.88132 20.0065C10.2363 20.3313 10.7637 20.3313 11.1187 20.0065C12.0469 19.1571 13.4531 19.1571 14.3813 20.0065C14.7363 20.3313 15.2637 20.3313 15.6187 20.0065L16.1018 19.5644C16.7545 18.9671 17.7455 18.9671 18.3982 19.5644C18.441 19.6035 18.4774 19.6156 18.5055 19.6194C18.5374 19.6237 18.5757 19.619 18.6149 19.6009C18.6901 19.5661 18.75 19.4934 18.75 19.3743V5.37014C18.75 4.11797 18.7406 3.67183 18.6295 3.3335C18.4009 2.63728 17.8735 2.10047 17.2141 1.87103C16.8967 1.76057 16.4761 1.75008 15.255 1.75008H5.74502ZM13.4995 6.44063C13.8085 6.7165 13.8353 7.19062 13.5595 7.49959L9.98803 11.4996C9.84574 11.659 9.64223 11.7501 9.42858 11.7501C9.21493 11.7501 9.01142 11.659 8.86912 11.4996L7.44055 9.89959C7.16468 9.59062 7.19152 9.1165 7.50049 8.84063C7.80947 8.56476 8.28359 8.59159 8.55946 8.90057L9.42858 9.87398L12.4406 6.50057C12.7164 6.19159 13.1905 6.16476 13.4995 6.44063ZM5.25001 14.5001C5.25001 14.0859 5.58579 13.7501 6.00001 13.7501H15C15.4142 13.7501 15.75 14.0859 15.75 14.5001C15.75 14.9143 15.4142 15.2501 15 15.2501H6.00001C5.58579 15.2501 5.25001 14.9143 5.25001 14.5001Z" fill="#2A2A2A"/>
</svg>
