<svg width="33" height="34" viewBox="0 0 33 34" fill="none" xmlns="http://www.w3.org/2000/svg">
<rect x="0.666656" y="1" width="32" height="32" rx="4" stroke="white" stroke-width="0.6"/>
<rect x="9.66666" y="10" width="14" height="14" rx="4" fill="white"/>
<path d="M13.3639 18.6595C13.4323 18.0934 13.6645 17.7765 14.102 17.4516C14.728 17.0115 15.5099 17.2604 15.5099 17.2604V15.7838C15.7 15.779 15.8902 15.7902 16.0782 15.8175V17.7178C16.0782 17.7178 15.2965 17.4689 14.6705 17.9091C14.2332 18.2338 14.0006 18.551 13.9325 19.117C13.9303 19.4244 13.988 19.8262 14.2537 20.1737C14.188 20.14 14.121 20.1016 14.0528 20.0585C13.4677 19.6656 13.3611 19.0761 13.3639 18.6595ZM19.307 13.0535C18.8764 12.5816 18.7135 12.1052 18.6547 11.7705H19.1964C19.1964 11.7705 19.0884 12.6481 19.8756 13.5111L19.8865 13.5227C19.6743 13.3892 19.4798 13.2317 19.307 13.0535ZM21.9166 14.3914V16.2534C21.9166 16.2534 21.2254 16.2263 20.7138 16.0962C19.9995 15.9142 19.5404 15.635 19.5404 15.635C19.5404 15.635 19.2232 15.4359 19.1976 15.422V19.2672C19.1976 19.4813 19.1389 20.016 18.9602 20.4619C18.7268 21.0453 18.3667 21.4282 18.3005 21.5065C18.3005 21.5065 17.8625 22.0241 17.0898 22.3727C16.3933 22.6871 15.7817 22.6792 15.599 22.6871C15.599 22.6871 14.5419 22.729 13.5906 22.1108C13.3849 21.9746 13.1929 21.8202 13.0171 21.6498L13.0218 21.6533C13.9733 22.2714 15.0302 22.2296 15.0302 22.2296C15.2132 22.2216 15.8247 22.2296 16.521 21.9151C17.293 21.5666 17.7317 21.049 17.7317 21.049C17.7972 20.9707 18.159 20.5878 18.3914 20.0042C18.5697 19.5584 18.6288 19.0235 18.6288 18.8094V14.9647C18.6544 14.9788 18.9713 15.1779 18.9713 15.1779C18.9713 15.1779 19.4307 15.4573 20.145 15.6391C20.6568 15.7693 21.3479 15.7963 21.3479 15.7963V14.3372C21.5843 14.3902 21.7858 14.4046 21.9166 14.3914Z" fill="#909DAD"/>
<path d="M21.3481 14.3372V15.7959C21.3481 15.7959 20.6571 15.7688 20.1452 15.6387C19.4309 15.4566 18.9716 15.1775 18.9716 15.1775C18.9716 15.1775 18.6547 14.9784 18.629 14.9643V18.8099C18.629 19.024 18.5704 19.5589 18.3916 20.0046C18.1583 20.5882 17.7982 20.9711 17.7319 21.0494C17.7319 21.0494 17.2937 21.567 16.5212 21.9156C15.825 22.23 15.2134 22.2221 15.0304 22.23C15.0304 22.23 13.9735 22.2719 13.0221 21.6537L13.0173 21.6503C12.9169 21.553 12.8223 21.4503 12.7341 21.3427C12.4305 20.9725 12.2444 20.5348 12.1976 20.4098C12.1975 20.4093 12.1975 20.4088 12.1976 20.4082C12.1224 20.1912 11.9643 19.6699 11.9859 19.1651C12.0241 18.2743 12.3374 17.7276 12.4203 17.5906C12.6397 17.2171 12.9251 16.8829 13.2637 16.6029C13.5626 16.3613 13.9013 16.1691 14.266 16.0341C14.6603 15.8756 15.0825 15.7907 15.5099 15.7838V17.2604C15.5099 17.2604 14.728 17.0124 14.1022 17.4516C13.6647 17.7765 13.4325 18.0934 13.3642 18.6595C13.3613 19.0761 13.4679 19.6656 14.0526 20.0588C14.1208 20.102 14.1877 20.1404 14.2534 20.1739C14.3556 20.3067 14.4799 20.4224 14.6214 20.5163C15.1925 20.8779 15.6711 20.9031 16.2831 20.6683C16.6912 20.5113 16.9984 20.1575 17.1408 19.7655C17.2303 19.5207 17.2291 19.2743 17.2291 19.0194V11.7705H18.6535C18.7123 12.1052 18.8752 12.5816 19.3058 13.0535C19.4786 13.2317 19.6731 13.3892 19.8853 13.5227C19.948 13.5875 20.2684 13.9081 20.6798 14.1049C20.8926 14.2066 21.1168 14.2846 21.3481 14.3372Z" fill="black"/>
<path d="M11.6307 19.9561V19.9572L11.666 20.053C11.662 20.0418 11.6489 20.0079 11.6307 19.9561Z" fill="#69C9D0"/>
<path d="M14.266 16.0338C13.9013 16.1688 13.5626 16.361 13.2637 16.6026C12.925 16.8832 12.6397 17.2181 12.4205 17.5923C12.3377 17.7288 12.0243 18.276 11.9861 19.1668C11.9645 19.6717 12.1226 20.1929 12.1979 20.41C12.1978 20.4105 12.1978 20.4111 12.1979 20.4116C12.2453 20.5354 12.4307 20.9731 12.7344 21.3444C12.8226 21.4521 12.9171 21.5548 13.0176 21.652C12.6957 21.4387 12.4087 21.1808 12.1658 20.8867C11.8648 20.5197 11.6792 20.0865 11.6307 19.9586C11.6307 19.9577 11.6307 19.9568 11.6307 19.9559V19.9543C11.5552 19.7374 11.3967 19.2159 11.4187 18.7104C11.457 17.8196 11.7703 17.2729 11.8532 17.1359C12.0723 16.7616 12.3576 16.4267 12.6964 16.1462C12.9952 15.9045 13.3339 15.7123 13.6986 15.5774C13.9262 15.4869 14.1632 15.4201 14.4056 15.3783C14.7709 15.3172 15.1441 15.3119 15.5111 15.3626V15.7835C15.0833 15.7902 14.6606 15.8752 14.266 16.0338Z" fill="#909DAD"/>
<path d="M18.6546 11.7703H17.2303V19.0194C17.2303 19.2743 17.2303 19.52 17.142 19.7655C16.9981 20.1573 16.6921 20.5111 16.2843 20.6681C15.672 20.9038 15.1935 20.8776 14.6225 20.5161C14.4808 20.4226 14.3562 20.3073 14.2536 20.1748C14.74 20.4235 15.1754 20.4192 15.7148 20.2117C16.1224 20.0547 16.4288 19.7009 16.5722 19.3088C16.662 19.064 16.6608 18.8176 16.6608 18.563V11.3125H18.6276C18.6276 11.3125 18.6055 11.4927 18.6546 11.7703ZM21.3481 13.9336V14.337C21.1172 14.2843 20.8933 14.2063 20.681 14.1047C20.2696 13.9079 19.9491 13.5873 19.8864 13.5224C19.9592 13.5682 20.0346 13.6098 20.1124 13.6471C20.6126 13.8865 21.1052 13.9579 21.3481 13.9336Z" fill="#546881"/>
</svg>
