<svg width="16" height="16" viewBox="0 0 16 16" fill="none" xmlns="http://www.w3.org/2000/svg">
<path d="M2.25 3C1.55964 3 1 3.55964 1 4.25V9H9V4.25C9 3.55964 8.44036 3 7.75 3H2.25Z" fill="#C1C1C1"/>
<path d="M9 10H1V11.75C1 12.4404 1.55964 13 2.25 13H2.5C2.5 11.8954 3.39543 11 4.5 11C5.60457 11 6.5 11.8954 6.5 13H8.5C8.77614 13 9 12.7761 9 12.5V10Z" fill="#C1C1C1"/>
<path d="M5.5 13C5.5 12.4477 5.05228 12 4.5 12C3.94772 12 3.5 12.4477 3.5 13C3.5 13.5523 3.94772 14 4.5 14C5.05228 14 5.5 13.5523 5.5 13Z" fill="#C1C1C1"/>
<path d="M10.5 4.5C10.2239 4.5 10 4.72386 10 5V12.5C10 12.5579 10.0098 12.6134 10.0279 12.6651C10.1872 11.72 11.0095 11 12 11C13.0961 11 13.9863 11.8818 13.9998 12.9747C14.5688 12.858 15.0149 12.3511 14.976 11.7196C14.8207 9.19937 13.9184 6.88068 12.4883 4.98327C12.252 4.66975 11.8844 4.5 11.508 4.5H10.5Z" fill="#C1C1C1"/>
<path d="M13 13C13 12.4477 12.5523 12 12 12C11.4477 12 11 12.4477 11 13C11 13.5523 11.4477 14 12 14C12.5523 14 13 13.5523 13 13Z" fill="#C1C1C1"/>
</svg>
