<svg width="16" height="16" viewBox="0 0 16 16" fill="none" xmlns="http://www.w3.org/2000/svg">
<path fill-rule="evenodd" clip-rule="evenodd" d="M5.00022 4C5.00022 2.34315 6.34337 1 8.00022 1C9.65707 1 11.0002 2.34315 11.0002 4C11.0002 5.65685 9.65707 7 8.00022 7C6.34337 7 5.00022 5.65685 5.00022 4Z" fill="#383838"/>
<path fill-rule="evenodd" clip-rule="evenodd" d="M2.50105 13.4036C2.55261 10.4104 4.99488 8 8.00022 8C11.0056 8 13.4479 10.4105 13.4994 13.4038C13.5028 13.6023 13.3884 13.784 13.208 13.8668C11.622 14.5945 9.8579 15 8.00043 15C6.14279 15 4.37851 14.5945 2.79244 13.8666C2.61199 13.7838 2.49763 13.6021 2.50105 13.4036Z" fill="#383838"/>
</svg>
