<svg width="21" height="20" viewBox="0 0 21 20" fill="none" xmlns="http://www.w3.org/2000/svg">
<path fill-rule="evenodd" clip-rule="evenodd" d="M9.0936 0.318832C9.98301 -0.106277 11.017 -0.106277 11.9064 0.318832C12.2928 0.503514 12.6468 0.805512 13.1371 1.22367C13.1625 1.24538 13.1883 1.2674 13.2146 1.28973C13.4526 1.49262 13.5276 1.555 13.6035 1.60585C13.7965 1.73519 14.0132 1.82495 14.2411 1.86995C14.3307 1.88764 14.4278 1.89654 14.7396 1.92143C14.7739 1.92417 14.8078 1.92685 14.8411 1.92949C15.4834 1.98046 15.9473 2.01727 16.3511 2.15991C17.2807 2.48822 18.0118 3.21935 18.3401 4.14885C18.4827 4.55267 18.5195 5.01656 18.5705 5.6589C18.5732 5.69224 18.5758 5.72607 18.5786 5.76039C18.6035 6.0722 18.6124 6.16933 18.6301 6.25894C18.675 6.48684 18.7648 6.70355 18.8941 6.89652C18.945 6.97239 19.0074 7.04737 19.2103 7.28545C19.2326 7.31166 19.2546 7.33748 19.2763 7.36293C19.6945 7.85316 19.9965 8.20721 20.1812 8.5936C20.6063 9.48302 20.6063 10.517 20.1812 11.4064C19.9965 11.7928 19.6945 12.1468 19.2764 12.6371C19.2546 12.6625 19.2326 12.6883 19.2103 12.7146C19.0074 12.9526 18.945 13.0276 18.8941 13.1035C18.7648 13.2965 18.675 13.5132 18.6301 13.7411C18.6124 13.8307 18.6035 13.9278 18.5786 14.2396C18.5758 14.2739 18.5732 14.3078 18.5705 14.3411C18.5195 14.9834 18.4827 15.4473 18.3401 15.8511C18.0118 16.7807 17.2807 17.5118 16.3511 17.8401C15.9473 17.9827 15.4834 18.0195 14.8411 18.0705C14.8078 18.0732 14.7739 18.0758 14.7396 18.0786C14.4278 18.1035 14.3307 18.1124 14.2411 18.1301C14.0132 18.175 13.7965 18.2648 13.6035 18.3941C13.5276 18.445 13.4526 18.5074 13.2146 18.7103C13.1883 18.7326 13.1625 18.7546 13.1371 18.7763C12.6468 19.1945 12.2928 19.4965 11.9064 19.6812C11.017 20.1063 9.98302 20.1063 9.0936 19.6812C8.70721 19.4965 8.35315 19.1945 7.8629 18.7763C7.83746 18.7546 7.81165 18.7326 7.78545 18.7103C7.54736 18.5074 7.47239 18.445 7.39652 18.3941C7.20355 18.2648 6.98684 18.175 6.75894 18.1301C6.66933 18.1124 6.5722 18.1035 6.26039 18.0786C6.22607 18.0758 6.19225 18.0732 6.1589 18.0705C5.51656 18.0195 5.05267 17.9827 4.64885 17.8401C3.71935 17.5118 2.98822 16.7807 2.65991 15.8511C2.51727 15.4473 2.48046 14.9834 2.42949 14.3411C2.42685 14.3078 2.42417 14.2739 2.42143 14.2396C2.39654 13.9278 2.38764 13.8307 2.36995 13.7411C2.32495 13.5132 2.23519 13.2965 2.10585 13.1035C2.055 13.0276 1.99262 12.9526 1.78973 12.7146C1.7674 12.6884 1.74538 12.6625 1.72368 12.6371C1.30551 12.1468 1.00351 11.7928 0.818832 11.4064C0.393723 10.517 0.393723 9.48301 0.818832 8.5936C1.00351 8.20721 1.30551 7.85315 1.72367 7.36291C1.74537 7.33747 1.76739 7.31165 1.78973 7.28545C1.99262 7.04736 2.055 6.97239 2.10585 6.89652C2.23519 6.70355 2.32495 6.48684 2.36995 6.25894C2.38764 6.16933 2.39654 6.0722 2.42143 5.76039C2.42417 5.72607 2.42685 5.69225 2.42949 5.6589C2.48046 5.01657 2.51727 4.55267 2.65991 4.14885C2.98822 3.21935 3.71935 2.48822 4.64885 2.15991C5.05267 2.01727 5.51657 1.98046 6.15891 1.92949C6.19225 1.92685 6.22607 1.92417 6.26039 1.92143C6.5722 1.89654 6.66933 1.88764 6.75894 1.86995C6.98684 1.82495 7.20355 1.73519 7.39652 1.60585C7.47239 1.555 7.54736 1.49262 7.78545 1.28973C7.81165 1.26739 7.83746 1.24538 7.86291 1.22367C8.35315 0.805511 8.70721 0.503514 9.0936 0.318832ZM11.2573 1.6769C10.7784 1.44799 10.2216 1.44799 9.74271 1.6769C9.55755 1.76539 9.36239 1.92352 8.76176 2.43537C8.75189 2.44378 8.74216 2.45207 8.73255 2.46026C8.53544 2.6283 8.39156 2.75097 8.23456 2.8562C7.87619 3.09639 7.47373 3.2631 7.05048 3.34666C6.86505 3.38327 6.67657 3.39827 6.41837 3.41883C6.40579 3.41983 6.39304 3.42084 6.38012 3.42187C5.59348 3.48465 5.34367 3.51084 5.15016 3.57919C4.64966 3.75597 4.25597 4.14966 4.07919 4.65016C4.01084 4.84367 3.98465 5.09348 3.92187 5.88012C3.92084 5.89304 3.91983 5.90579 3.91883 5.91837C3.89827 6.17657 3.88327 6.36505 3.84666 6.55048C3.7631 6.97373 3.59639 7.37619 3.3562 7.73456C3.25097 7.89156 3.1283 8.03545 2.96025 8.23256C2.95207 8.24216 2.94377 8.25189 2.93537 8.26176C2.42352 8.86239 2.26539 9.05755 2.1769 9.24271C1.94799 9.72162 1.94799 10.2784 2.1769 10.7573C2.26539 10.9424 2.42352 11.1376 2.93537 11.7382C2.94378 11.7481 2.95207 11.7578 2.96026 11.7674C3.1283 11.9646 3.25097 12.1084 3.3562 12.2654C3.59639 12.6238 3.7631 13.0263 3.84666 13.4495C3.88327 13.6349 3.89827 13.8234 3.91883 14.0816C3.91983 14.0942 3.92084 14.107 3.92187 14.1199C3.98465 14.9065 4.01084 15.1563 4.07919 15.3498C4.25597 15.8503 4.64966 16.244 5.15016 16.4208C5.34367 16.4892 5.59348 16.5154 6.38012 16.5781L6.41836 16.5812C6.67658 16.6017 6.86506 16.6167 7.05048 16.6533C7.47373 16.7369 7.87619 16.9036 8.23456 17.1438C8.39156 17.249 8.53545 17.3717 8.73256 17.5397L8.76176 17.5646C9.36239 18.0765 9.55755 18.2346 9.74271 18.3231C10.2216 18.552 10.7784 18.552 11.2573 18.3231C11.4424 18.2346 11.6376 18.0765 12.2382 17.5646L12.2675 17.5397C12.4646 17.3717 12.6084 17.249 12.7654 17.1438C13.1238 16.9036 13.5263 16.7369 13.9495 16.6533C14.1349 16.6167 14.3234 16.6017 14.5816 16.5812L14.6199 16.5781C15.4065 16.5154 15.6563 16.4892 15.8498 16.4208C16.3503 16.244 16.744 15.8503 16.9208 15.3498C16.9892 15.1563 17.0154 14.9065 17.0781 14.1199L17.0812 14.0816C17.1017 13.8234 17.1167 13.6349 17.1533 13.4495C17.2369 13.0263 17.4036 12.6238 17.6438 12.2654C17.749 12.1084 17.8717 11.9646 18.0397 11.7675L18.0646 11.7382C18.5765 11.1376 18.7346 10.9424 18.8231 10.7573C19.052 10.2784 19.052 9.72162 18.8231 9.24271C18.7346 9.05755 18.5765 8.86239 18.0646 8.26176L18.0397 8.23254C17.8717 8.03543 17.749 7.89155 17.6438 7.73456C17.4036 7.37619 17.2369 6.97373 17.1533 6.55048C17.1167 6.36505 17.1017 6.17658 17.0812 5.91836L17.0781 5.88012C17.0154 5.09348 16.9892 4.84367 16.9208 4.65016C16.744 4.14966 16.3503 3.75597 15.8498 3.57919C15.6563 3.51084 15.4065 3.48465 14.6199 3.42187C14.607 3.42084 14.5942 3.41983 14.5816 3.41883C14.3234 3.39827 14.1349 3.38327 13.9495 3.34666C13.5263 3.2631 13.1238 3.09639 12.7654 2.8562C12.6084 2.75097 12.4646 2.6283 12.2674 2.46025C12.2578 2.45207 12.2481 2.44377 12.2382 2.43537C11.6376 1.92352 11.4424 1.76539 11.2573 1.6769ZM14.5443 6.95913C14.8383 7.25304 14.8383 7.72957 14.5443 8.02348L9.52696 13.0409C9.23305 13.3348 8.75652 13.3348 8.46261 13.0409L6.45565 11.0339C6.16174 10.74 6.16174 10.2635 6.45565 9.96956C6.74957 9.67565 7.22609 9.67565 7.52 9.96956L8.99478 11.4443L13.48 6.95913C13.7739 6.66522 14.2504 6.66522 14.5443 6.95913Z" fill="#2A2A2A"/>
</svg>
