<svg width="33" height="34" viewBox="0 0 33 34" fill="none" xmlns="http://www.w3.org/2000/svg">
<rect x="0.666656" y="1" width="32" height="32" rx="4" stroke="white" stroke-width="0.6"/>
<path d="M11.3333 10C10.4168 10 9.66666 10.7502 9.66666 11.6667V22.3333C9.66666 23.2498 10.4168 24 11.3333 24H22C22.9165 24 23.6667 23.2498 23.6667 22.3333V11.6667C23.6667 10.7502 22.9165 10 22 10H11.3333ZM11.3333 10.6667H13.5267C12.3363 11.9052 11.6667 13.506 11.6667 15.1667C11.6667 16.8867 12.37 18.5333 13.6367 19.7799C13.6767 19.8499 13.71 20.1932 13.5566 20.5898C13.46 20.8398 13.2666 21.1664 12.8932 21.2897C12.7499 21.3364 12.6567 21.477 12.6667 21.627C12.6767 21.777 12.7869 21.9036 12.9336 21.9336C13.8903 22.1236 14.5098 21.8367 15.0098 21.61C15.4598 21.4034 15.7569 21.2632 16.2135 21.4499C17.1469 21.8132 18.14 22 19.1667 22C20.5312 22 21.8438 21.6669 23 21.0378V22.3333C23 22.8895 22.5562 23.3333 22 23.3333H11.3333C10.7772 23.3333 10.3333 22.8895 10.3333 22.3333V11.6667C10.3333 11.1105 10.7772 10.6667 11.3333 10.6667ZM19.3333 13.6667C19.5167 13.6667 19.6667 13.8167 19.6667 14V17C19.6667 17.1833 19.5167 17.3333 19.3333 17.3333C19.15 17.3333 19 17.1833 19 17V14C19 13.8167 19.15 13.6667 19.3333 13.6667ZM14.3333 14H16C16.12 14 16.2336 14.0665 16.2936 14.1732C16.3503 14.2765 16.3465 14.4064 16.2832 14.5098L14.9336 16.6667H16C16.1833 16.6667 16.3333 16.8167 16.3333 17C16.3333 17.1833 16.1833 17.3333 16 17.3333H14.3333C14.2133 17.3333 14.0997 17.2668 14.0397 17.1602C13.983 17.0568 13.9868 16.9269 14.0501 16.8236L15.3997 14.6667H14.3333C14.15 14.6667 14 14.5167 14 14.3333C14 14.15 14.15 14 14.3333 14ZM17.5 15C17.7033 15 17.8931 15.0564 18.0631 15.1497C18.1231 15.0631 18.2167 15 18.3333 15C18.5167 15 18.6667 15.15 18.6667 15.3333V17C18.6667 17.1833 18.5167 17.3333 18.3333 17.3333C18.2167 17.3333 18.1231 17.2703 18.0631 17.1836C17.8931 17.2769 17.7033 17.3333 17.5 17.3333C16.8567 17.3333 16.3333 16.81 16.3333 16.1667C16.3333 15.5233 16.8567 15 17.5 15ZM21.1667 15C21.81 15 22.3333 15.5233 22.3333 16.1667C22.3333 16.81 21.81 17.3333 21.1667 17.3333C20.5233 17.3333 20 16.81 20 16.1667C20 15.5233 20.5233 15 21.1667 15ZM17.5 15.6667C17.4654 15.6667 17.4317 15.6704 17.3991 15.6771C17.3339 15.6904 17.2732 15.7161 17.22 15.752C17.1669 15.7879 17.1212 15.8335 17.0853 15.8867C17.0494 15.9399 17.0237 16.0006 17.0104 16.0658C17.0038 16.0983 17 16.1321 17 16.1667C17 16.2013 17.0038 16.235 17.0104 16.2676C17.0171 16.3002 17.0264 16.3314 17.0391 16.3613C17.0517 16.3913 17.0673 16.42 17.0853 16.4466C17.1032 16.4732 17.1239 16.4976 17.1465 16.5202C17.1691 16.5428 17.1934 16.5634 17.22 16.5814C17.2732 16.6173 17.3339 16.643 17.3991 16.6562C17.4317 16.6629 17.4654 16.6667 17.5 16.6667C17.5346 16.6667 17.5683 16.6629 17.6009 16.6562C17.829 16.6097 18 16.4088 18 16.1667C18 15.89 17.7767 15.6667 17.5 15.6667ZM21.1667 15.6667C21.1321 15.6667 21.0983 15.6704 21.0657 15.6771C21.0332 15.6837 21.0019 15.6931 20.972 15.7057C20.9421 15.7184 20.9133 15.734 20.8867 15.752C20.8601 15.7699 20.8357 15.7905 20.8131 15.8132C20.7679 15.8584 20.731 15.9122 20.7057 15.972C20.6931 16.0019 20.6837 16.0332 20.6771 16.0658C20.6704 16.0983 20.6667 16.1321 20.6667 16.1667C20.6667 16.2013 20.6704 16.235 20.6771 16.2676C20.6837 16.3002 20.6931 16.3314 20.7057 16.3613C20.7183 16.3913 20.734 16.42 20.7519 16.4466C20.7699 16.4732 20.7905 16.4976 20.8131 16.5202C20.8357 16.5428 20.8601 16.5634 20.8867 16.5814C20.9133 16.5993 20.9421 16.615 20.972 16.6276C21.0019 16.6402 21.0332 16.6496 21.0657 16.6562C21.0983 16.6629 21.1321 16.6667 21.1667 16.6667C21.2012 16.6667 21.235 16.6629 21.2676 16.6562C21.4957 16.6097 21.6667 16.4088 21.6667 16.1667C21.6667 15.89 21.4433 15.6667 21.1667 15.6667Z" fill="white"/>
</svg>
